<mxfile host="Electron" modified="2023-12-28T18:48:08.911Z" agent="Mozilla/5.0 (Windows NT 10.0; Win64; x64) AppleWebKit/537.36 (KHTML, like Gecko) draw.io/21.6.5 Chrome/114.0.5735.243 Electron/25.3.1 Safari/537.36" etag="pwbO3vfp2oPdcT7mPHjo" version="21.6.5" type="device" pages="6">
  <diagram name="bd_brief" id="wjSl2jKwSkH-KG0pPpFf">
    <mxGraphModel dx="877" dy="503" grid="1" gridSize="8" guides="0" tooltips="1" connect="1" arrows="0" fold="1" page="1" pageScale="1" pageWidth="2560" pageHeight="1440" background="#ffffff" math="0" shadow="0">
      <root>
        <mxCell id="0" />
        <mxCell id="1" parent="0" />
        <mxCell id="gHWjX6nv2yNhoL-KbP3H-1" value="ds_fifo" style="rounded=0;whiteSpace=wrap;html=1;verticalAlign=top;fontStyle=4" parent="1" vertex="1">
          <mxGeometry x="64" y="32" width="128" height="160" as="geometry" />
        </mxCell>
        <mxCell id="gHWjX6nv2yNhoL-KbP3H-5" style="edgeStyle=orthogonalEdgeStyle;rounded=0;orthogonalLoop=1;jettySize=auto;html=1;entryX=0;entryY=0.5;entryDx=0;entryDy=0;strokeWidth=2;startArrow=none;startFill=0;" parent="1" target="gHWjX6nv2yNhoL-KbP3H-4" edge="1">
          <mxGeometry relative="1" as="geometry">
            <mxPoint x="32" y="96" as="sourcePoint" />
          </mxGeometry>
        </mxCell>
        <mxCell id="gHWjX6nv2yNhoL-KbP3H-4" value="if_wr" style="text;html=1;strokeColor=none;fillColor=none;align=left;verticalAlign=middle;whiteSpace=wrap;rounded=0;" parent="1" vertex="1">
          <mxGeometry x="64" y="80" width="64" height="32" as="geometry" />
        </mxCell>
        <mxCell id="gHWjX6nv2yNhoL-KbP3H-6" style="edgeStyle=orthogonalEdgeStyle;rounded=0;orthogonalLoop=1;jettySize=auto;html=1;exitX=0;exitY=0.5;exitDx=0;exitDy=0;" parent="1" source="gHWjX6nv2yNhoL-KbP3H-7" edge="1">
          <mxGeometry relative="1" as="geometry">
            <mxPoint x="32" y="160" as="targetPoint" />
          </mxGeometry>
        </mxCell>
        <mxCell id="gHWjX6nv2yNhoL-KbP3H-7" value="if_wr_lvl" style="text;html=1;strokeColor=none;fillColor=none;align=left;verticalAlign=middle;whiteSpace=wrap;rounded=0;" parent="1" vertex="1">
          <mxGeometry x="64" y="144" width="64" height="32" as="geometry" />
        </mxCell>
        <mxCell id="gHWjX6nv2yNhoL-KbP3H-8" style="edgeStyle=orthogonalEdgeStyle;rounded=0;orthogonalLoop=1;jettySize=auto;html=1;exitX=1;exitY=0.5;exitDx=0;exitDy=0;strokeWidth=2;startArrow=none;startFill=0;" parent="1" source="gHWjX6nv2yNhoL-KbP3H-9" edge="1">
          <mxGeometry relative="1" as="geometry">
            <mxPoint x="64" y="95.84848484848487" as="sourcePoint" />
            <mxPoint x="224" y="96" as="targetPoint" />
          </mxGeometry>
        </mxCell>
        <mxCell id="gHWjX6nv2yNhoL-KbP3H-9" value="if_rd" style="text;html=1;strokeColor=none;fillColor=none;align=right;verticalAlign=middle;whiteSpace=wrap;rounded=0;" parent="1" vertex="1">
          <mxGeometry x="128" y="80" width="64" height="32" as="geometry" />
        </mxCell>
        <mxCell id="gHWjX6nv2yNhoL-KbP3H-10" style="edgeStyle=orthogonalEdgeStyle;rounded=0;orthogonalLoop=1;jettySize=auto;html=1;exitX=1;exitY=0.5;exitDx=0;exitDy=0;" parent="1" source="gHWjX6nv2yNhoL-KbP3H-11" edge="1">
          <mxGeometry relative="1" as="geometry">
            <mxPoint x="224" y="160" as="targetPoint" />
          </mxGeometry>
        </mxCell>
        <mxCell id="gHWjX6nv2yNhoL-KbP3H-11" value="if_rd_lvl" style="text;html=1;strokeColor=none;fillColor=none;align=right;verticalAlign=middle;whiteSpace=wrap;rounded=0;" parent="1" vertex="1">
          <mxGeometry x="128" y="144" width="64" height="32" as="geometry" />
        </mxCell>
      </root>
    </mxGraphModel>
  </diagram>
  <diagram id="JYN1SZmsnTX2j3zQ1K6k" name="bd_arch">
    <mxGraphModel dx="1534" dy="880" grid="1" gridSize="8" guides="0" tooltips="1" connect="1" arrows="0" fold="1" page="1" pageScale="1" pageWidth="2560" pageHeight="1440" background="#ffffff" math="0" shadow="0">
      <root>
        <mxCell id="0" />
        <mxCell id="1" parent="0" />
        <mxCell id="rMKE9LM4B4AWsbPADffU-1" value="ds_fifo" style="rounded=0;whiteSpace=wrap;html=1;verticalAlign=top;fontStyle=4" vertex="1" parent="1">
          <mxGeometry x="32" y="32" width="128" height="160" as="geometry" />
        </mxCell>
        <mxCell id="rMKE9LM4B4AWsbPADffU-2" value="&lt;i&gt;if_wr&lt;/i&gt;" style="rounded=1;whiteSpace=wrap;html=1;verticalAlign=top;fillColor=#E6E6E6;" vertex="1" parent="1">
          <mxGeometry x="32" y="224" width="64" height="160" as="geometry" />
        </mxCell>
        <mxCell id="rMKE9LM4B4AWsbPADffU-3" value="vld" style="text;html=1;strokeColor=none;fillColor=none;align=right;verticalAlign=middle;whiteSpace=wrap;rounded=0;" vertex="1" parent="1">
          <mxGeometry x="48" y="256" width="48" height="16" as="geometry" />
        </mxCell>
        <mxCell id="rMKE9LM4B4AWsbPADffU-4" value="data" style="text;html=1;strokeColor=none;fillColor=none;align=right;verticalAlign=middle;whiteSpace=wrap;rounded=0;" vertex="1" parent="1">
          <mxGeometry x="48" y="352" width="48" height="16" as="geometry" />
        </mxCell>
        <mxCell id="rMKE9LM4B4AWsbPADffU-5" value="" style="rounded=1;whiteSpace=wrap;html=1;" vertex="1" parent="1">
          <mxGeometry x="32" y="256" width="16" height="16" as="geometry" />
        </mxCell>
        <mxCell id="rMKE9LM4B4AWsbPADffU-6" style="edgeStyle=orthogonalEdgeStyle;rounded=0;orthogonalLoop=1;jettySize=auto;html=1;exitX=0;exitY=0.5;exitDx=0;exitDy=0;entryX=1;entryY=0.5;entryDx=0;entryDy=0;" edge="1" parent="1" source="rMKE9LM4B4AWsbPADffU-5" target="rMKE9LM4B4AWsbPADffU-5">
          <mxGeometry relative="1" as="geometry" />
        </mxCell>
        <mxCell id="rMKE9LM4B4AWsbPADffU-7" value="rdy" style="text;html=1;strokeColor=none;fillColor=none;align=right;verticalAlign=middle;whiteSpace=wrap;rounded=0;" vertex="1" parent="1">
          <mxGeometry x="48" y="288" width="48" height="16" as="geometry" />
        </mxCell>
        <mxCell id="rMKE9LM4B4AWsbPADffU-8" value="" style="rounded=1;whiteSpace=wrap;html=1;" vertex="1" parent="1">
          <mxGeometry x="32" y="288" width="16" height="16" as="geometry" />
        </mxCell>
        <mxCell id="rMKE9LM4B4AWsbPADffU-9" style="edgeStyle=orthogonalEdgeStyle;rounded=0;orthogonalLoop=1;jettySize=auto;html=1;exitX=1;exitY=0.5;exitDx=0;exitDy=0;entryX=0;entryY=0.5;entryDx=0;entryDy=0;" edge="1" parent="1" source="rMKE9LM4B4AWsbPADffU-8" target="rMKE9LM4B4AWsbPADffU-8">
          <mxGeometry relative="1" as="geometry" />
        </mxCell>
        <mxCell id="rMKE9LM4B4AWsbPADffU-10" value="xfer" style="text;html=1;strokeColor=none;fillColor=none;align=right;verticalAlign=middle;whiteSpace=wrap;rounded=0;" vertex="1" parent="1">
          <mxGeometry x="48" y="320" width="48" height="16" as="geometry" />
        </mxCell>
        <mxCell id="rMKE9LM4B4AWsbPADffU-11" value="" style="rounded=1;whiteSpace=wrap;html=1;" vertex="1" parent="1">
          <mxGeometry x="32" y="352" width="16" height="16" as="geometry" />
        </mxCell>
        <mxCell id="rMKE9LM4B4AWsbPADffU-12" style="edgeStyle=orthogonalEdgeStyle;rounded=0;orthogonalLoop=1;jettySize=auto;html=1;exitX=0;exitY=0.5;exitDx=0;exitDy=0;entryX=1;entryY=0.5;entryDx=0;entryDy=0;" edge="1" parent="1" source="rMKE9LM4B4AWsbPADffU-11" target="rMKE9LM4B4AWsbPADffU-11">
          <mxGeometry relative="1" as="geometry" />
        </mxCell>
        <mxCell id="rMKE9LM4B4AWsbPADffU-13" value="&lt;i&gt;if_wr_lvl&lt;/i&gt;" style="rounded=1;whiteSpace=wrap;html=1;verticalAlign=top;fillColor=#E6E6E6;" vertex="1" parent="1">
          <mxGeometry x="32" y="416" width="64" height="160" as="geometry" />
        </mxCell>
        <mxCell id="rMKE9LM4B4AWsbPADffU-14" value="lim" style="text;html=1;strokeColor=none;fillColor=none;align=right;verticalAlign=middle;whiteSpace=wrap;rounded=0;" vertex="1" parent="1">
          <mxGeometry x="48" y="448" width="48" height="16" as="geometry" />
        </mxCell>
        <mxCell id="rMKE9LM4B4AWsbPADffU-15" value="lvl_gte" style="text;html=1;strokeColor=none;fillColor=none;align=right;verticalAlign=middle;whiteSpace=wrap;rounded=0;" vertex="1" parent="1">
          <mxGeometry x="48" y="544" width="48" height="16" as="geometry" />
        </mxCell>
        <mxCell id="rMKE9LM4B4AWsbPADffU-16" value="" style="rounded=1;whiteSpace=wrap;html=1;" vertex="1" parent="1">
          <mxGeometry x="32" y="448" width="16" height="16" as="geometry" />
        </mxCell>
        <mxCell id="rMKE9LM4B4AWsbPADffU-17" style="edgeStyle=orthogonalEdgeStyle;rounded=0;orthogonalLoop=1;jettySize=auto;html=1;exitX=1;exitY=0.5;exitDx=0;exitDy=0;entryX=0;entryY=0.5;entryDx=0;entryDy=0;" edge="1" parent="1" source="rMKE9LM4B4AWsbPADffU-16" target="rMKE9LM4B4AWsbPADffU-16">
          <mxGeometry relative="1" as="geometry" />
        </mxCell>
        <mxCell id="rMKE9LM4B4AWsbPADffU-18" value="lvl" style="text;html=1;strokeColor=none;fillColor=none;align=right;verticalAlign=middle;whiteSpace=wrap;rounded=0;" vertex="1" parent="1">
          <mxGeometry x="48" y="480" width="48" height="16" as="geometry" />
        </mxCell>
        <mxCell id="rMKE9LM4B4AWsbPADffU-19" value="" style="rounded=1;whiteSpace=wrap;html=1;" vertex="1" parent="1">
          <mxGeometry x="32" y="480" width="16" height="16" as="geometry" />
        </mxCell>
        <mxCell id="rMKE9LM4B4AWsbPADffU-20" style="edgeStyle=orthogonalEdgeStyle;rounded=0;orthogonalLoop=1;jettySize=auto;html=1;exitX=1;exitY=0.5;exitDx=0;exitDy=0;entryX=0;entryY=0.5;entryDx=0;entryDy=0;" edge="1" parent="1" source="rMKE9LM4B4AWsbPADffU-19" target="rMKE9LM4B4AWsbPADffU-19">
          <mxGeometry relative="1" as="geometry" />
        </mxCell>
        <mxCell id="rMKE9LM4B4AWsbPADffU-21" value="lvl_thr" style="text;html=1;strokeColor=none;fillColor=none;align=right;verticalAlign=middle;whiteSpace=wrap;rounded=0;" vertex="1" parent="1">
          <mxGeometry x="48" y="512" width="48" height="16" as="geometry" />
        </mxCell>
        <mxCell id="rMKE9LM4B4AWsbPADffU-22" value="" style="rounded=1;whiteSpace=wrap;html=1;" vertex="1" parent="1">
          <mxGeometry x="32" y="544" width="16" height="16" as="geometry" />
        </mxCell>
        <mxCell id="rMKE9LM4B4AWsbPADffU-23" style="edgeStyle=orthogonalEdgeStyle;rounded=0;orthogonalLoop=1;jettySize=auto;html=1;exitX=1;exitY=0.5;exitDx=0;exitDy=0;entryX=0;entryY=0.5;entryDx=0;entryDy=0;" edge="1" parent="1" source="rMKE9LM4B4AWsbPADffU-22" target="rMKE9LM4B4AWsbPADffU-22">
          <mxGeometry relative="1" as="geometry" />
        </mxCell>
        <mxCell id="rMKE9LM4B4AWsbPADffU-24" value="" style="rounded=1;whiteSpace=wrap;html=1;" vertex="1" parent="1">
          <mxGeometry x="32" y="512" width="16" height="16" as="geometry" />
        </mxCell>
        <mxCell id="rMKE9LM4B4AWsbPADffU-25" style="edgeStyle=orthogonalEdgeStyle;rounded=0;orthogonalLoop=1;jettySize=auto;html=1;exitX=0;exitY=0.5;exitDx=0;exitDy=0;entryX=1;entryY=0.5;entryDx=0;entryDy=0;" edge="1" parent="1" source="rMKE9LM4B4AWsbPADffU-24" target="rMKE9LM4B4AWsbPADffU-24">
          <mxGeometry relative="1" as="geometry" />
        </mxCell>
        <mxCell id="rMKE9LM4B4AWsbPADffU-26" value="&lt;i&gt;Level&lt;/i&gt;" style="rounded=0;whiteSpace=wrap;html=1;verticalAlign=top;" vertex="1" parent="1">
          <mxGeometry x="288" y="384" width="176" height="192" as="geometry" />
        </mxCell>
        <mxCell id="rMKE9LM4B4AWsbPADffU-27" value="" style="rounded=1;whiteSpace=wrap;html=1;fillColor=#FFFFFF;" vertex="1" parent="1">
          <mxGeometry x="288" y="448" width="16" height="16" as="geometry" />
        </mxCell>
        <mxCell id="rMKE9LM4B4AWsbPADffU-28" style="edgeStyle=orthogonalEdgeStyle;rounded=0;orthogonalLoop=1;jettySize=auto;html=1;exitX=1;exitY=0.5;exitDx=0;exitDy=0;entryX=0;entryY=0.5;entryDx=0;entryDy=0;startArrow=none;startFill=0;startSize=3;endSize=3;" edge="1" parent="1" source="rMKE9LM4B4AWsbPADffU-27" target="rMKE9LM4B4AWsbPADffU-27">
          <mxGeometry relative="1" as="geometry" />
        </mxCell>
        <mxCell id="rMKE9LM4B4AWsbPADffU-29" value="" style="rounded=1;whiteSpace=wrap;html=1;fillColor=#FFFFFF;" vertex="1" parent="1">
          <mxGeometry x="288" y="544" width="16" height="16" as="geometry" />
        </mxCell>
        <mxCell id="rMKE9LM4B4AWsbPADffU-30" style="edgeStyle=orthogonalEdgeStyle;rounded=0;orthogonalLoop=1;jettySize=auto;html=1;exitX=1;exitY=0.5;exitDx=0;exitDy=0;entryX=0;entryY=0.5;entryDx=0;entryDy=0;startArrow=none;startFill=0;startSize=3;endSize=3;" edge="1" parent="1" source="rMKE9LM4B4AWsbPADffU-29" target="rMKE9LM4B4AWsbPADffU-29">
          <mxGeometry relative="1" as="geometry" />
        </mxCell>
        <mxCell id="rMKE9LM4B4AWsbPADffU-31" value="q_full" style="text;html=1;strokeColor=none;fillColor=none;align=left;verticalAlign=middle;whiteSpace=wrap;rounded=0;fontSize=8;" vertex="1" parent="1">
          <mxGeometry x="304" y="448" width="48" height="16" as="geometry" />
        </mxCell>
        <mxCell id="rMKE9LM4B4AWsbPADffU-32" value="q_ewc_gte" style="text;html=1;strokeColor=none;fillColor=none;align=left;verticalAlign=middle;whiteSpace=wrap;rounded=0;fontSize=8;" vertex="1" parent="1">
          <mxGeometry x="304" y="544" width="48" height="16" as="geometry" />
        </mxCell>
        <mxCell id="rMKE9LM4B4AWsbPADffU-33" value="" style="rounded=1;whiteSpace=wrap;html=1;fillColor=#FFFFFF;" vertex="1" parent="1">
          <mxGeometry x="448" y="448" width="16" height="16" as="geometry" />
        </mxCell>
        <mxCell id="rMKE9LM4B4AWsbPADffU-34" style="edgeStyle=orthogonalEdgeStyle;rounded=0;orthogonalLoop=1;jettySize=auto;html=1;exitX=0;exitY=0.5;exitDx=0;exitDy=0;entryX=1;entryY=0.5;entryDx=0;entryDy=0;startArrow=none;startFill=0;startSize=3;endSize=3;" edge="1" parent="1" source="rMKE9LM4B4AWsbPADffU-33" target="rMKE9LM4B4AWsbPADffU-33">
          <mxGeometry relative="1" as="geometry" />
        </mxCell>
        <mxCell id="rMKE9LM4B4AWsbPADffU-35" value="&lt;span style=&quot;text-align: left;&quot;&gt;q_empty&lt;/span&gt;" style="text;html=1;strokeColor=none;fillColor=none;align=right;verticalAlign=middle;whiteSpace=wrap;rounded=0;fontSize=8;" vertex="1" parent="1">
          <mxGeometry x="400" y="448" width="48" height="16" as="geometry" />
        </mxCell>
        <mxCell id="rMKE9LM4B4AWsbPADffU-36" value="" style="rounded=1;whiteSpace=wrap;html=1;fillColor=#FFFFFF;" vertex="1" parent="1">
          <mxGeometry x="288" y="480" width="16" height="16" as="geometry" />
        </mxCell>
        <mxCell id="rMKE9LM4B4AWsbPADffU-37" style="edgeStyle=orthogonalEdgeStyle;rounded=0;orthogonalLoop=1;jettySize=auto;html=1;exitX=1;exitY=0.5;exitDx=0;exitDy=0;entryX=0;entryY=0.5;entryDx=0;entryDy=0;startArrow=none;startFill=0;startSize=3;endSize=3;" edge="1" parent="1" source="rMKE9LM4B4AWsbPADffU-36" target="rMKE9LM4B4AWsbPADffU-36">
          <mxGeometry relative="1" as="geometry" />
        </mxCell>
        <mxCell id="rMKE9LM4B4AWsbPADffU-38" value="q_ewc" style="text;html=1;strokeColor=none;fillColor=none;align=left;verticalAlign=middle;whiteSpace=wrap;rounded=0;fontSize=8;" vertex="1" parent="1">
          <mxGeometry x="304" y="480" width="48" height="16" as="geometry" />
        </mxCell>
        <mxCell id="rMKE9LM4B4AWsbPADffU-39" value="" style="rounded=1;whiteSpace=wrap;html=1;fillColor=#FFFFFF;" vertex="1" parent="1">
          <mxGeometry x="288" y="512" width="16" height="16" as="geometry" />
        </mxCell>
        <mxCell id="rMKE9LM4B4AWsbPADffU-40" style="edgeStyle=orthogonalEdgeStyle;rounded=0;orthogonalLoop=1;jettySize=auto;html=1;exitX=0;exitY=0.5;exitDx=0;exitDy=0;entryX=1;entryY=0.5;entryDx=0;entryDy=0;startArrow=none;startFill=0;startSize=3;endSize=3;" edge="1" parent="1" source="rMKE9LM4B4AWsbPADffU-39" target="rMKE9LM4B4AWsbPADffU-39">
          <mxGeometry relative="1" as="geometry" />
        </mxCell>
        <mxCell id="rMKE9LM4B4AWsbPADffU-41" value="ewc_thr" style="text;html=1;strokeColor=none;fillColor=none;align=left;verticalAlign=middle;whiteSpace=wrap;rounded=0;fontSize=8;" vertex="1" parent="1">
          <mxGeometry x="304" y="512" width="48" height="16" as="geometry" />
        </mxCell>
        <mxCell id="rMKE9LM4B4AWsbPADffU-42" value="" style="rounded=1;whiteSpace=wrap;html=1;fillColor=#FFFFFF;" vertex="1" parent="1">
          <mxGeometry x="448" y="480" width="16" height="16" as="geometry" />
        </mxCell>
        <mxCell id="rMKE9LM4B4AWsbPADffU-43" style="edgeStyle=orthogonalEdgeStyle;rounded=0;orthogonalLoop=1;jettySize=auto;html=1;exitX=0;exitY=0.5;exitDx=0;exitDy=0;entryX=1;entryY=0.5;entryDx=0;entryDy=0;startArrow=none;startFill=0;startSize=3;endSize=3;" edge="1" parent="1" source="rMKE9LM4B4AWsbPADffU-42" target="rMKE9LM4B4AWsbPADffU-42">
          <mxGeometry relative="1" as="geometry" />
        </mxCell>
        <mxCell id="rMKE9LM4B4AWsbPADffU-44" value="&lt;span style=&quot;text-align: left;&quot;&gt;q_wc&lt;/span&gt;" style="text;html=1;strokeColor=none;fillColor=none;align=right;verticalAlign=middle;whiteSpace=wrap;rounded=0;fontSize=8;" vertex="1" parent="1">
          <mxGeometry x="400" y="480" width="48" height="16" as="geometry" />
        </mxCell>
        <mxCell id="rMKE9LM4B4AWsbPADffU-45" value="" style="rounded=1;whiteSpace=wrap;html=1;fillColor=#FFFFFF;" vertex="1" parent="1">
          <mxGeometry x="448" y="512" width="16" height="16" as="geometry" />
        </mxCell>
        <mxCell id="rMKE9LM4B4AWsbPADffU-46" style="edgeStyle=orthogonalEdgeStyle;rounded=0;orthogonalLoop=1;jettySize=auto;html=1;exitX=1;exitY=0.5;exitDx=0;exitDy=0;entryX=0;entryY=0.5;entryDx=0;entryDy=0;startArrow=none;startFill=0;startSize=3;endSize=3;" edge="1" parent="1" source="rMKE9LM4B4AWsbPADffU-45" target="rMKE9LM4B4AWsbPADffU-45">
          <mxGeometry relative="1" as="geometry" />
        </mxCell>
        <mxCell id="rMKE9LM4B4AWsbPADffU-47" value="&lt;span style=&quot;text-align: left;&quot;&gt;wc_thr&lt;/span&gt;" style="text;html=1;strokeColor=none;fillColor=none;align=right;verticalAlign=middle;whiteSpace=wrap;rounded=0;fontSize=8;" vertex="1" parent="1">
          <mxGeometry x="400" y="512" width="48" height="16" as="geometry" />
        </mxCell>
        <mxCell id="rMKE9LM4B4AWsbPADffU-48" value="" style="rounded=1;whiteSpace=wrap;html=1;fillColor=#FFFFFF;" vertex="1" parent="1">
          <mxGeometry x="448" y="544" width="16" height="16" as="geometry" />
        </mxCell>
        <mxCell id="rMKE9LM4B4AWsbPADffU-49" style="edgeStyle=orthogonalEdgeStyle;rounded=0;orthogonalLoop=1;jettySize=auto;html=1;exitX=0;exitY=0.5;exitDx=0;exitDy=0;entryX=1;entryY=0.5;entryDx=0;entryDy=0;startArrow=none;startFill=0;startSize=3;endSize=3;" edge="1" parent="1" source="rMKE9LM4B4AWsbPADffU-48" target="rMKE9LM4B4AWsbPADffU-48">
          <mxGeometry relative="1" as="geometry" />
        </mxCell>
        <mxCell id="rMKE9LM4B4AWsbPADffU-50" value="&lt;span style=&quot;text-align: left;&quot;&gt;q_wc_gte&lt;/span&gt;" style="text;html=1;strokeColor=none;fillColor=none;align=right;verticalAlign=middle;whiteSpace=wrap;rounded=0;fontSize=8;" vertex="1" parent="1">
          <mxGeometry x="400" y="544" width="48" height="16" as="geometry" />
        </mxCell>
        <mxCell id="rMKE9LM4B4AWsbPADffU-51" value="&lt;i&gt;Handshake&lt;/i&gt;" style="rounded=0;whiteSpace=wrap;html=1;verticalAlign=top;" vertex="1" parent="1">
          <mxGeometry x="288" y="240" width="176" height="128" as="geometry" />
        </mxCell>
        <mxCell id="rMKE9LM4B4AWsbPADffU-52" value="&lt;i&gt;Data Path&lt;/i&gt;" style="rounded=0;whiteSpace=wrap;html=1;verticalAlign=top;" vertex="1" parent="1">
          <mxGeometry x="272" y="32" width="208" height="184" as="geometry" />
        </mxCell>
        <mxCell id="rMKE9LM4B4AWsbPADffU-53" value="&lt;span style=&quot;text-align: left;&quot;&gt;q_wc&lt;/span&gt;" style="text;html=1;strokeColor=none;fillColor=none;align=right;verticalAlign=middle;whiteSpace=wrap;rounded=0;fontSize=8;" vertex="1" parent="1">
          <mxGeometry x="400" y="328" width="48" height="16" as="geometry" />
        </mxCell>
        <mxCell id="rMKE9LM4B4AWsbPADffU-54" value="if_wr.xfer" style="text;html=1;strokeColor=none;fillColor=none;align=left;verticalAlign=middle;whiteSpace=wrap;rounded=0;fontSize=8;" vertex="1" parent="1">
          <mxGeometry x="304" y="296" width="48" height="16" as="geometry" />
        </mxCell>
        <mxCell id="rMKE9LM4B4AWsbPADffU-55" value="if_rd.xfer" style="text;html=1;strokeColor=none;fillColor=none;align=right;verticalAlign=middle;whiteSpace=wrap;rounded=0;fontSize=8;" vertex="1" parent="1">
          <mxGeometry x="400" y="296" width="48" height="16" as="geometry" />
        </mxCell>
        <mxCell id="rMKE9LM4B4AWsbPADffU-56" value="" style="rounded=1;whiteSpace=wrap;html=1;fillColor=#808080;" vertex="1" parent="1">
          <mxGeometry x="288" y="296" width="16" height="16" as="geometry" />
        </mxCell>
        <mxCell id="rMKE9LM4B4AWsbPADffU-57" style="edgeStyle=orthogonalEdgeStyle;rounded=0;orthogonalLoop=1;jettySize=auto;html=1;exitX=0;exitY=0.5;exitDx=0;exitDy=0;entryX=1;entryY=0.5;entryDx=0;entryDy=0;startArrow=none;startFill=0;startSize=3;endSize=3;" edge="1" parent="1" source="rMKE9LM4B4AWsbPADffU-56" target="rMKE9LM4B4AWsbPADffU-56">
          <mxGeometry relative="1" as="geometry" />
        </mxCell>
        <mxCell id="rMKE9LM4B4AWsbPADffU-58" value="if_wr.rdy" style="text;html=1;strokeColor=none;fillColor=none;align=left;verticalAlign=middle;whiteSpace=wrap;rounded=0;fontSize=8;" vertex="1" parent="1">
          <mxGeometry x="304" y="264" width="48" height="16" as="geometry" />
        </mxCell>
        <mxCell id="rMKE9LM4B4AWsbPADffU-59" value="" style="rounded=1;whiteSpace=wrap;html=1;fillColor=#FFFFFF;" vertex="1" parent="1">
          <mxGeometry x="288" y="264" width="16" height="16" as="geometry" />
        </mxCell>
        <mxCell id="rMKE9LM4B4AWsbPADffU-60" style="edgeStyle=orthogonalEdgeStyle;rounded=0;orthogonalLoop=1;jettySize=auto;html=1;exitX=1;exitY=0.5;exitDx=0;exitDy=0;entryX=0;entryY=0.5;entryDx=0;entryDy=0;startArrow=none;startFill=0;startSize=3;endSize=3;" edge="1" parent="1" source="rMKE9LM4B4AWsbPADffU-59" target="rMKE9LM4B4AWsbPADffU-59">
          <mxGeometry relative="1" as="geometry" />
        </mxCell>
        <mxCell id="rMKE9LM4B4AWsbPADffU-61" value="" style="rounded=1;whiteSpace=wrap;html=1;fillColor=#808080;" vertex="1" parent="1">
          <mxGeometry x="448" y="296" width="16" height="16" as="geometry" />
        </mxCell>
        <mxCell id="rMKE9LM4B4AWsbPADffU-62" style="edgeStyle=orthogonalEdgeStyle;rounded=0;orthogonalLoop=1;jettySize=auto;html=1;exitX=1;exitY=0.5;exitDx=0;exitDy=0;entryX=0;entryY=0.5;entryDx=0;entryDy=0;startArrow=none;startFill=0;startSize=3;endSize=3;" edge="1" parent="1" source="rMKE9LM4B4AWsbPADffU-61" target="rMKE9LM4B4AWsbPADffU-61">
          <mxGeometry relative="1" as="geometry" />
        </mxCell>
        <mxCell id="rMKE9LM4B4AWsbPADffU-63" value="if_rd.vld" style="text;html=1;strokeColor=none;fillColor=none;align=right;verticalAlign=middle;whiteSpace=wrap;rounded=0;fontSize=8;" vertex="1" parent="1">
          <mxGeometry x="400" y="264" width="48" height="16" as="geometry" />
        </mxCell>
        <mxCell id="rMKE9LM4B4AWsbPADffU-64" value="" style="rounded=1;whiteSpace=wrap;html=1;fillColor=#FFFFFF;" vertex="1" parent="1">
          <mxGeometry x="448" y="264" width="16" height="16" as="geometry" />
        </mxCell>
        <mxCell id="rMKE9LM4B4AWsbPADffU-65" style="edgeStyle=orthogonalEdgeStyle;rounded=0;orthogonalLoop=1;jettySize=auto;html=1;exitX=0;exitY=0.5;exitDx=0;exitDy=0;entryX=1;entryY=0.5;entryDx=0;entryDy=0;startArrow=none;startFill=0;startSize=3;endSize=3;" edge="1" parent="1" source="rMKE9LM4B4AWsbPADffU-64" target="rMKE9LM4B4AWsbPADffU-64">
          <mxGeometry relative="1" as="geometry" />
        </mxCell>
        <mxCell id="rMKE9LM4B4AWsbPADffU-66" value="" style="rounded=1;whiteSpace=wrap;html=1;fillColor=#FFFFFF;" vertex="1" parent="1">
          <mxGeometry x="448" y="328" width="16" height="16" as="geometry" />
        </mxCell>
        <mxCell id="rMKE9LM4B4AWsbPADffU-67" style="edgeStyle=orthogonalEdgeStyle;rounded=0;orthogonalLoop=1;jettySize=auto;html=1;exitX=1;exitY=0.5;exitDx=0;exitDy=0;entryX=0;entryY=0.5;entryDx=0;entryDy=0;startArrow=none;startFill=0;startSize=3;endSize=3;" edge="1" parent="1" source="rMKE9LM4B4AWsbPADffU-66" target="rMKE9LM4B4AWsbPADffU-66">
          <mxGeometry relative="1" as="geometry" />
        </mxCell>
        <mxCell id="rMKE9LM4B4AWsbPADffU-68" value="&lt;span style=&quot;text-align: left;&quot;&gt;q_wc&lt;/span&gt;" style="text;html=1;strokeColor=none;fillColor=none;align=right;verticalAlign=middle;whiteSpace=wrap;rounded=0;fontSize=8;" vertex="1" parent="1">
          <mxGeometry x="416" y="184" width="48" height="16" as="geometry" />
        </mxCell>
        <mxCell id="rMKE9LM4B4AWsbPADffU-69" value="if_wr.xfer" style="text;html=1;strokeColor=none;fillColor=none;align=left;verticalAlign=middle;whiteSpace=wrap;rounded=0;fontSize=8;" vertex="1" parent="1">
          <mxGeometry x="288" y="152" width="48" height="16" as="geometry" />
        </mxCell>
        <mxCell id="rMKE9LM4B4AWsbPADffU-70" value="if_rd.xfer" style="text;html=1;strokeColor=none;fillColor=none;align=right;verticalAlign=middle;whiteSpace=wrap;rounded=0;fontSize=8;" vertex="1" parent="1">
          <mxGeometry x="416" y="152" width="48" height="16" as="geometry" />
        </mxCell>
        <mxCell id="rMKE9LM4B4AWsbPADffU-71" value="" style="rounded=1;whiteSpace=wrap;html=1;fillColor=#808080;" vertex="1" parent="1">
          <mxGeometry x="272" y="152" width="16" height="16" as="geometry" />
        </mxCell>
        <mxCell id="rMKE9LM4B4AWsbPADffU-72" style="edgeStyle=orthogonalEdgeStyle;rounded=0;orthogonalLoop=1;jettySize=auto;html=1;exitX=0;exitY=0.5;exitDx=0;exitDy=0;entryX=1;entryY=0.5;entryDx=0;entryDy=0;startArrow=none;startFill=0;startSize=3;endSize=3;" edge="1" parent="1" source="rMKE9LM4B4AWsbPADffU-71" target="rMKE9LM4B4AWsbPADffU-71">
          <mxGeometry relative="1" as="geometry" />
        </mxCell>
        <mxCell id="rMKE9LM4B4AWsbPADffU-73" value="" style="rounded=1;whiteSpace=wrap;html=1;fillColor=#808080;" vertex="1" parent="1">
          <mxGeometry x="464" y="152" width="16" height="16" as="geometry" />
        </mxCell>
        <mxCell id="rMKE9LM4B4AWsbPADffU-74" style="edgeStyle=orthogonalEdgeStyle;rounded=0;orthogonalLoop=1;jettySize=auto;html=1;exitX=1;exitY=0.5;exitDx=0;exitDy=0;entryX=0;entryY=0.5;entryDx=0;entryDy=0;startArrow=none;startFill=0;startSize=3;endSize=3;" edge="1" parent="1" source="rMKE9LM4B4AWsbPADffU-73" target="rMKE9LM4B4AWsbPADffU-73">
          <mxGeometry relative="1" as="geometry" />
        </mxCell>
        <mxCell id="rMKE9LM4B4AWsbPADffU-75" value="" style="rounded=1;whiteSpace=wrap;html=1;fillColor=#FFFFFF;" vertex="1" parent="1">
          <mxGeometry x="464" y="184" width="16" height="16" as="geometry" />
        </mxCell>
        <mxCell id="rMKE9LM4B4AWsbPADffU-76" style="edgeStyle=orthogonalEdgeStyle;rounded=0;orthogonalLoop=1;jettySize=auto;html=1;exitX=1;exitY=0.5;exitDx=0;exitDy=0;entryX=0;entryY=0.5;entryDx=0;entryDy=0;startArrow=none;startFill=0;startSize=3;endSize=3;" edge="1" parent="1" source="rMKE9LM4B4AWsbPADffU-75" target="rMKE9LM4B4AWsbPADffU-75">
          <mxGeometry relative="1" as="geometry" />
        </mxCell>
        <mxCell id="rMKE9LM4B4AWsbPADffU-77" value="SHR&lt;br&gt;or&lt;br&gt;RAM" style="rounded=0;whiteSpace=wrap;html=1;" vertex="1" parent="1">
          <mxGeometry x="344" y="96" width="64" height="96" as="geometry" />
        </mxCell>
        <mxCell id="rMKE9LM4B4AWsbPADffU-78" value="" style="rounded=1;whiteSpace=wrap;html=1;" vertex="1" parent="1">
          <mxGeometry x="272" y="88" width="16" height="16" as="geometry" />
        </mxCell>
        <mxCell id="rMKE9LM4B4AWsbPADffU-79" style="edgeStyle=orthogonalEdgeStyle;rounded=0;orthogonalLoop=1;jettySize=auto;html=1;exitX=0;exitY=0.5;exitDx=0;exitDy=0;entryX=1;entryY=0.5;entryDx=0;entryDy=0;" edge="1" parent="1" source="rMKE9LM4B4AWsbPADffU-78" target="rMKE9LM4B4AWsbPADffU-78">
          <mxGeometry relative="1" as="geometry" />
        </mxCell>
        <mxCell id="rMKE9LM4B4AWsbPADffU-80" value="" style="rounded=1;whiteSpace=wrap;html=1;" vertex="1" parent="1">
          <mxGeometry x="464" y="88" width="16" height="16" as="geometry" />
        </mxCell>
        <mxCell id="rMKE9LM4B4AWsbPADffU-81" style="edgeStyle=orthogonalEdgeStyle;rounded=0;orthogonalLoop=1;jettySize=auto;html=1;exitX=0;exitY=0.5;exitDx=0;exitDy=0;entryX=1;entryY=0.5;entryDx=0;entryDy=0;" edge="1" parent="1" source="rMKE9LM4B4AWsbPADffU-80" target="rMKE9LM4B4AWsbPADffU-80">
          <mxGeometry relative="1" as="geometry" />
        </mxCell>
        <mxCell id="rMKE9LM4B4AWsbPADffU-82" value="if_wr.xfer" style="text;html=1;strokeColor=none;fillColor=none;align=left;verticalAlign=middle;whiteSpace=wrap;rounded=0;fontSize=8;" vertex="1" parent="1">
          <mxGeometry x="304" y="416" width="48" height="16" as="geometry" />
        </mxCell>
        <mxCell id="rMKE9LM4B4AWsbPADffU-83" value="if_rd.xfer" style="text;html=1;strokeColor=none;fillColor=none;align=right;verticalAlign=middle;whiteSpace=wrap;rounded=0;fontSize=8;" vertex="1" parent="1">
          <mxGeometry x="400" y="416" width="48" height="16" as="geometry" />
        </mxCell>
        <mxCell id="rMKE9LM4B4AWsbPADffU-84" value="" style="rounded=1;whiteSpace=wrap;html=1;fillColor=#808080;" vertex="1" parent="1">
          <mxGeometry x="288" y="416" width="16" height="16" as="geometry" />
        </mxCell>
        <mxCell id="rMKE9LM4B4AWsbPADffU-85" style="edgeStyle=orthogonalEdgeStyle;rounded=0;orthogonalLoop=1;jettySize=auto;html=1;exitX=0;exitY=0.5;exitDx=0;exitDy=0;entryX=1;entryY=0.5;entryDx=0;entryDy=0;startArrow=none;startFill=0;startSize=3;endSize=3;" edge="1" parent="1" source="rMKE9LM4B4AWsbPADffU-84" target="rMKE9LM4B4AWsbPADffU-84">
          <mxGeometry relative="1" as="geometry" />
        </mxCell>
        <mxCell id="rMKE9LM4B4AWsbPADffU-86" value="" style="rounded=1;whiteSpace=wrap;html=1;fillColor=#808080;" vertex="1" parent="1">
          <mxGeometry x="448" y="416" width="16" height="16" as="geometry" />
        </mxCell>
        <mxCell id="rMKE9LM4B4AWsbPADffU-87" style="edgeStyle=orthogonalEdgeStyle;rounded=0;orthogonalLoop=1;jettySize=auto;html=1;exitX=1;exitY=0.5;exitDx=0;exitDy=0;entryX=0;entryY=0.5;entryDx=0;entryDy=0;startArrow=none;startFill=0;startSize=3;endSize=3;" edge="1" parent="1" source="rMKE9LM4B4AWsbPADffU-86" target="rMKE9LM4B4AWsbPADffU-86">
          <mxGeometry relative="1" as="geometry" />
        </mxCell>
        <mxCell id="rMKE9LM4B4AWsbPADffU-88" value="if_wr.data" style="text;html=1;strokeColor=none;fillColor=none;align=left;verticalAlign=middle;whiteSpace=wrap;rounded=0;fontSize=8;" vertex="1" parent="1">
          <mxGeometry x="288" y="88" width="48" height="16" as="geometry" />
        </mxCell>
        <mxCell id="rMKE9LM4B4AWsbPADffU-89" value="if_rd.data" style="text;html=1;strokeColor=none;fillColor=none;align=right;verticalAlign=middle;whiteSpace=wrap;rounded=0;fontSize=8;" vertex="1" parent="1">
          <mxGeometry x="416" y="88" width="48" height="16" as="geometry" />
        </mxCell>
      </root>
    </mxGraphModel>
  </diagram>
  <diagram id="e-ovMx3LrPGsX1DGOVB0" name="bd_bypass">
    <mxGraphModel dx="1058" dy="607" grid="1" gridSize="8" guides="0" tooltips="1" connect="1" arrows="0" fold="1" page="1" pageScale="1" pageWidth="2560" pageHeight="1440" background="#FFFFFF" math="0" shadow="0">
      <root>
        <mxCell id="0" />
        <mxCell id="1" parent="0" />
        <mxCell id="RU8ls_tXFm7bf09dRhr4-1" value="ds_fifo" style="rounded=0;whiteSpace=wrap;html=1;verticalAlign=top;fontStyle=4" vertex="1" parent="1">
          <mxGeometry x="64" y="32" width="160" height="160" as="geometry" />
        </mxCell>
        <mxCell id="RU8ls_tXFm7bf09dRhr4-2" style="edgeStyle=orthogonalEdgeStyle;rounded=0;orthogonalLoop=1;jettySize=auto;html=1;entryX=0;entryY=0.5;entryDx=0;entryDy=0;strokeWidth=2;startArrow=none;startFill=0;" edge="1" parent="1" target="RU8ls_tXFm7bf09dRhr4-4">
          <mxGeometry relative="1" as="geometry">
            <mxPoint x="32" y="96" as="sourcePoint" />
          </mxGeometry>
        </mxCell>
        <mxCell id="RU8ls_tXFm7bf09dRhr4-3" style="edgeStyle=orthogonalEdgeStyle;rounded=0;orthogonalLoop=1;jettySize=auto;html=1;exitX=1;exitY=0.5;exitDx=0;exitDy=0;entryX=0;entryY=0.5;entryDx=0;entryDy=0;fontStyle=1;strokeWidth=2;startArrow=none;startFill=0;" edge="1" parent="1" source="RU8ls_tXFm7bf09dRhr4-4" target="RU8ls_tXFm7bf09dRhr4-9">
          <mxGeometry relative="1" as="geometry" />
        </mxCell>
        <mxCell id="RU8ls_tXFm7bf09dRhr4-4" value="if_wr" style="text;html=1;strokeColor=none;fillColor=none;align=left;verticalAlign=middle;whiteSpace=wrap;rounded=0;" vertex="1" parent="1">
          <mxGeometry x="64" y="80" width="32" height="32" as="geometry" />
        </mxCell>
        <mxCell id="RU8ls_tXFm7bf09dRhr4-5" style="edgeStyle=orthogonalEdgeStyle;rounded=0;orthogonalLoop=1;jettySize=auto;html=1;exitX=0;exitY=0.5;exitDx=0;exitDy=0;" edge="1" parent="1" source="RU8ls_tXFm7bf09dRhr4-7">
          <mxGeometry relative="1" as="geometry">
            <mxPoint x="32" y="160" as="targetPoint" />
          </mxGeometry>
        </mxCell>
        <mxCell id="RU8ls_tXFm7bf09dRhr4-6" style="edgeStyle=orthogonalEdgeStyle;rounded=0;orthogonalLoop=1;jettySize=auto;html=1;exitX=1;exitY=0.5;exitDx=0;exitDy=0;endArrow=baseDash;endFill=0;" edge="1" parent="1" source="RU8ls_tXFm7bf09dRhr4-7">
          <mxGeometry relative="1" as="geometry">
            <mxPoint x="128" y="160" as="targetPoint" />
          </mxGeometry>
        </mxCell>
        <mxCell id="RU8ls_tXFm7bf09dRhr4-7" value="if_wr_lvl" style="text;html=1;strokeColor=none;fillColor=none;align=left;verticalAlign=middle;whiteSpace=wrap;rounded=0;" vertex="1" parent="1">
          <mxGeometry x="64" y="144" width="48" height="32" as="geometry" />
        </mxCell>
        <mxCell id="RU8ls_tXFm7bf09dRhr4-8" style="edgeStyle=orthogonalEdgeStyle;rounded=0;orthogonalLoop=1;jettySize=auto;html=1;exitX=1;exitY=0.5;exitDx=0;exitDy=0;strokeWidth=2;startArrow=none;startFill=0;" edge="1" parent="1" source="RU8ls_tXFm7bf09dRhr4-9">
          <mxGeometry relative="1" as="geometry">
            <mxPoint x="128" y="95.84848484848487" as="sourcePoint" />
            <mxPoint x="256" y="96" as="targetPoint" />
          </mxGeometry>
        </mxCell>
        <mxCell id="RU8ls_tXFm7bf09dRhr4-9" value="if_rd" style="text;html=1;strokeColor=none;fillColor=none;align=right;verticalAlign=middle;whiteSpace=wrap;rounded=0;" vertex="1" parent="1">
          <mxGeometry x="192" y="80" width="32" height="32" as="geometry" />
        </mxCell>
        <mxCell id="RU8ls_tXFm7bf09dRhr4-10" style="edgeStyle=orthogonalEdgeStyle;rounded=0;orthogonalLoop=1;jettySize=auto;html=1;exitX=1;exitY=0.5;exitDx=0;exitDy=0;" edge="1" parent="1" source="RU8ls_tXFm7bf09dRhr4-12">
          <mxGeometry relative="1" as="geometry">
            <mxPoint x="256" y="160" as="targetPoint" />
          </mxGeometry>
        </mxCell>
        <mxCell id="RU8ls_tXFm7bf09dRhr4-11" style="edgeStyle=orthogonalEdgeStyle;rounded=0;orthogonalLoop=1;jettySize=auto;html=1;exitX=0;exitY=0.5;exitDx=0;exitDy=0;endArrow=baseDash;endFill=0;" edge="1" parent="1" source="RU8ls_tXFm7bf09dRhr4-12">
          <mxGeometry relative="1" as="geometry">
            <mxPoint x="160" y="160" as="targetPoint" />
          </mxGeometry>
        </mxCell>
        <mxCell id="RU8ls_tXFm7bf09dRhr4-12" value="if_rd_lvl" style="text;html=1;strokeColor=none;fillColor=none;align=right;verticalAlign=middle;whiteSpace=wrap;rounded=0;" vertex="1" parent="1">
          <mxGeometry x="176" y="144" width="48" height="32" as="geometry" />
        </mxCell>
      </root>
    </mxGraphModel>
  </diagram>
  <diagram id="9cxwXDkqRmaG8UgKwjxV" name="bd_half_speed">
    <mxGraphModel dx="730" dy="419" grid="1" gridSize="8" guides="0" tooltips="1" connect="1" arrows="0" fold="1" page="1" pageScale="1" pageWidth="2560" pageHeight="1440" background="#ffffff" math="0" shadow="0">
      <root>
        <mxCell id="0" />
        <mxCell id="1" parent="0" />
        <mxCell id="JnLjQAhcIteyW8BOfNqG-1" value="ds_fifo" style="rounded=0;whiteSpace=wrap;html=1;verticalAlign=top;fontStyle=4" vertex="1" parent="1">
          <mxGeometry x="64" y="32" width="224" height="160" as="geometry" />
        </mxCell>
        <mxCell id="JnLjQAhcIteyW8BOfNqG-2" style="edgeStyle=orthogonalEdgeStyle;rounded=0;orthogonalLoop=1;jettySize=auto;html=1;entryX=0;entryY=0.5;entryDx=0;entryDy=0;strokeWidth=2;startArrow=none;startFill=0;" edge="1" parent="1" target="JnLjQAhcIteyW8BOfNqG-4">
          <mxGeometry relative="1" as="geometry">
            <mxPoint x="32" y="96" as="sourcePoint" />
          </mxGeometry>
        </mxCell>
        <mxCell id="JnLjQAhcIteyW8BOfNqG-3" style="edgeStyle=orthogonalEdgeStyle;rounded=0;orthogonalLoop=1;jettySize=auto;html=1;exitX=1;exitY=0.5;exitDx=0;exitDy=0;strokeWidth=2;entryX=0.5;entryY=1;entryDx=0;entryDy=0;" edge="1" parent="1" source="JnLjQAhcIteyW8BOfNqG-4" target="JnLjQAhcIteyW8BOfNqG-19">
          <mxGeometry relative="1" as="geometry">
            <mxPoint x="112" y="95.99999999999989" as="targetPoint" />
          </mxGeometry>
        </mxCell>
        <mxCell id="JnLjQAhcIteyW8BOfNqG-4" value="if_wr" style="text;html=1;strokeColor=none;fillColor=none;align=left;verticalAlign=middle;whiteSpace=wrap;rounded=0;" vertex="1" parent="1">
          <mxGeometry x="64" y="80" width="32" height="32" as="geometry" />
        </mxCell>
        <mxCell id="JnLjQAhcIteyW8BOfNqG-5" style="edgeStyle=orthogonalEdgeStyle;rounded=0;orthogonalLoop=1;jettySize=auto;html=1;exitX=0;exitY=0.5;exitDx=0;exitDy=0;" edge="1" parent="1" source="JnLjQAhcIteyW8BOfNqG-6">
          <mxGeometry relative="1" as="geometry">
            <mxPoint x="32" y="160" as="targetPoint" />
          </mxGeometry>
        </mxCell>
        <mxCell id="JnLjQAhcIteyW8BOfNqG-6" value="if_wr_lvl" style="text;html=1;strokeColor=none;fillColor=none;align=left;verticalAlign=middle;whiteSpace=wrap;rounded=0;" vertex="1" parent="1">
          <mxGeometry x="64" y="144" width="48" height="32" as="geometry" />
        </mxCell>
        <mxCell id="JnLjQAhcIteyW8BOfNqG-7" style="edgeStyle=orthogonalEdgeStyle;rounded=0;orthogonalLoop=1;jettySize=auto;html=1;exitX=1;exitY=0.5;exitDx=0;exitDy=0;strokeWidth=2;startArrow=none;startFill=0;" edge="1" parent="1" source="JnLjQAhcIteyW8BOfNqG-8">
          <mxGeometry relative="1" as="geometry">
            <mxPoint x="304" y="95.84848484848487" as="sourcePoint" />
            <mxPoint x="320" y="96" as="targetPoint" />
          </mxGeometry>
        </mxCell>
        <mxCell id="JnLjQAhcIteyW8BOfNqG-8" value="if_rd" style="text;html=1;strokeColor=none;fillColor=none;align=right;verticalAlign=middle;whiteSpace=wrap;rounded=0;" vertex="1" parent="1">
          <mxGeometry x="256" y="80" width="32" height="32" as="geometry" />
        </mxCell>
        <mxCell id="JnLjQAhcIteyW8BOfNqG-9" style="edgeStyle=orthogonalEdgeStyle;rounded=0;orthogonalLoop=1;jettySize=auto;html=1;exitX=1;exitY=0.5;exitDx=0;exitDy=0;" edge="1" parent="1" source="JnLjQAhcIteyW8BOfNqG-10">
          <mxGeometry relative="1" as="geometry">
            <mxPoint x="320" y="160" as="targetPoint" />
          </mxGeometry>
        </mxCell>
        <mxCell id="JnLjQAhcIteyW8BOfNqG-10" value="if_rd_lvl" style="text;html=1;strokeColor=none;fillColor=none;align=right;verticalAlign=middle;whiteSpace=wrap;rounded=0;" vertex="1" parent="1">
          <mxGeometry x="240" y="144" width="48" height="32" as="geometry" />
        </mxCell>
        <mxCell id="JnLjQAhcIteyW8BOfNqG-11" style="edgeStyle=orthogonalEdgeStyle;rounded=0;orthogonalLoop=1;jettySize=auto;html=1;exitX=1;exitY=0.5;exitDx=0;exitDy=0;entryX=0.75;entryY=1;entryDx=0;entryDy=0;strokeWidth=2;" edge="1" parent="1" source="JnLjQAhcIteyW8BOfNqG-12" target="JnLjQAhcIteyW8BOfNqG-17">
          <mxGeometry relative="1" as="geometry">
            <mxPoint x="200.0000000000001" y="104.00000000000006" as="targetPoint" />
          </mxGeometry>
        </mxCell>
        <mxCell id="JnLjQAhcIteyW8BOfNqG-12" value="FF" style="rounded=0;whiteSpace=wrap;html=1;fontSize=10;" vertex="1" parent="1">
          <mxGeometry x="152" y="96" width="16" height="32" as="geometry" />
        </mxCell>
        <mxCell id="JnLjQAhcIteyW8BOfNqG-13" style="edgeStyle=orthogonalEdgeStyle;rounded=0;orthogonalLoop=1;jettySize=auto;html=1;exitX=1;exitY=0.5;exitDx=0;exitDy=0;entryX=0;entryY=0.5;entryDx=0;entryDy=0;strokeWidth=2;" edge="1" parent="1" source="JnLjQAhcIteyW8BOfNqG-18" target="JnLjQAhcIteyW8BOfNqG-8">
          <mxGeometry relative="1" as="geometry">
            <mxPoint x="352" y="96" as="sourcePoint" />
          </mxGeometry>
        </mxCell>
        <mxCell id="JnLjQAhcIteyW8BOfNqG-14" style="edgeStyle=orthogonalEdgeStyle;rounded=0;orthogonalLoop=1;jettySize=auto;html=1;exitX=0.75;exitY=0;exitDx=0;exitDy=0;entryX=0;entryY=0.5;entryDx=0;entryDy=0;strokeWidth=2;" edge="1" parent="1" source="JnLjQAhcIteyW8BOfNqG-19" target="JnLjQAhcIteyW8BOfNqG-12">
          <mxGeometry relative="1" as="geometry">
            <mxPoint x="128" y="112" as="sourcePoint" />
            <Array as="points" />
          </mxGeometry>
        </mxCell>
        <mxCell id="JnLjQAhcIteyW8BOfNqG-15" style="edgeStyle=orthogonalEdgeStyle;rounded=0;orthogonalLoop=1;jettySize=auto;html=1;exitX=0.25;exitY=0;exitDx=0;exitDy=0;entryX=0.25;entryY=1;entryDx=0;entryDy=0;strokeWidth=2;" edge="1" parent="1" source="JnLjQAhcIteyW8BOfNqG-19" target="JnLjQAhcIteyW8BOfNqG-17">
          <mxGeometry relative="1" as="geometry">
            <mxPoint x="200" y="88.00000000000011" as="targetPoint" />
            <mxPoint x="128" y="80" as="sourcePoint" />
          </mxGeometry>
        </mxCell>
        <mxCell id="JnLjQAhcIteyW8BOfNqG-16" style="edgeStyle=orthogonalEdgeStyle;rounded=0;orthogonalLoop=1;jettySize=auto;html=1;exitX=0.5;exitY=0;exitDx=0;exitDy=0;entryX=0;entryY=0.5;entryDx=0;entryDy=0;strokeWidth=2;" edge="1" parent="1" source="JnLjQAhcIteyW8BOfNqG-17" target="JnLjQAhcIteyW8BOfNqG-18">
          <mxGeometry relative="1" as="geometry" />
        </mxCell>
        <mxCell id="JnLjQAhcIteyW8BOfNqG-17" value="MUX" style="shape=trapezoid;perimeter=trapezoidPerimeter;whiteSpace=wrap;html=1;fixedSize=1;rotation=90;size=12;fontSize=8;" vertex="1" parent="1">
          <mxGeometry x="168" y="88" width="64" height="16" as="geometry" />
        </mxCell>
        <mxCell id="JnLjQAhcIteyW8BOfNqG-18" value="FF" style="rounded=0;whiteSpace=wrap;html=1;fontSize=10;" vertex="1" parent="1">
          <mxGeometry x="224" y="80" width="16" height="32" as="geometry" />
        </mxCell>
        <mxCell id="JnLjQAhcIteyW8BOfNqG-19" value="DEMUX" style="shape=trapezoid;perimeter=trapezoidPerimeter;whiteSpace=wrap;html=1;fixedSize=1;rotation=90;size=12;flipH=1;flipV=1;fontSize=8;" vertex="1" parent="1">
          <mxGeometry x="88" y="88" width="64" height="16" as="geometry" />
        </mxCell>
      </root>
    </mxGraphModel>
  </diagram>
  <diagram id="2mZkXDYMjCzisuC-wcRD" name="bd_ram">
    <mxGraphModel dx="1058" dy="607" grid="1" gridSize="8" guides="0" tooltips="1" connect="1" arrows="0" fold="1" page="1" pageScale="1" pageWidth="2560" pageHeight="1440" background="#ffffff" math="0" shadow="0">
      <root>
        <mxCell id="0" />
        <mxCell id="1" parent="0" />
        <mxCell id="CHKw1NY7HmJ0gW_EjZ8T-1" value="ds_fifo" style="rounded=0;whiteSpace=wrap;html=1;verticalAlign=top;fontStyle=4" vertex="1" parent="1">
          <mxGeometry x="64" y="32" width="464" height="192" as="geometry" />
        </mxCell>
        <mxCell id="CHKw1NY7HmJ0gW_EjZ8T-2" style="edgeStyle=orthogonalEdgeStyle;rounded=0;orthogonalLoop=1;jettySize=auto;html=1;entryX=0;entryY=0.5;entryDx=0;entryDy=0;strokeWidth=2;startArrow=none;startFill=0;" edge="1" parent="1" target="CHKw1NY7HmJ0gW_EjZ8T-4">
          <mxGeometry relative="1" as="geometry">
            <mxPoint x="32" y="96" as="sourcePoint" />
          </mxGeometry>
        </mxCell>
        <mxCell id="CHKw1NY7HmJ0gW_EjZ8T-3" style="edgeStyle=orthogonalEdgeStyle;rounded=0;orthogonalLoop=1;jettySize=auto;html=1;exitX=1;exitY=0.5;exitDx=0;exitDy=0;strokeWidth=2;entryX=0;entryY=0.5;entryDx=0;entryDy=0;" edge="1" parent="1" source="CHKw1NY7HmJ0gW_EjZ8T-4" target="CHKw1NY7HmJ0gW_EjZ8T-13">
          <mxGeometry relative="1" as="geometry">
            <mxPoint x="112" y="96" as="targetPoint" />
            <Array as="points">
              <mxPoint x="192" y="96" />
              <mxPoint x="192" y="112" />
            </Array>
          </mxGeometry>
        </mxCell>
        <mxCell id="CHKw1NY7HmJ0gW_EjZ8T-4" value="if_wr" style="text;html=1;strokeColor=none;fillColor=none;align=left;verticalAlign=middle;whiteSpace=wrap;rounded=0;" vertex="1" parent="1">
          <mxGeometry x="64" y="80" width="32" height="32" as="geometry" />
        </mxCell>
        <mxCell id="CHKw1NY7HmJ0gW_EjZ8T-5" style="edgeStyle=orthogonalEdgeStyle;rounded=0;orthogonalLoop=1;jettySize=auto;html=1;exitX=0;exitY=0.5;exitDx=0;exitDy=0;" edge="1" parent="1" source="CHKw1NY7HmJ0gW_EjZ8T-6">
          <mxGeometry relative="1" as="geometry">
            <mxPoint x="32" y="192" as="targetPoint" />
          </mxGeometry>
        </mxCell>
        <mxCell id="CHKw1NY7HmJ0gW_EjZ8T-6" value="if_wr_lvl" style="text;html=1;strokeColor=none;fillColor=none;align=left;verticalAlign=middle;whiteSpace=wrap;rounded=0;" vertex="1" parent="1">
          <mxGeometry x="64" y="176" width="48" height="32" as="geometry" />
        </mxCell>
        <mxCell id="CHKw1NY7HmJ0gW_EjZ8T-7" style="edgeStyle=orthogonalEdgeStyle;rounded=0;orthogonalLoop=1;jettySize=auto;html=1;exitX=1;exitY=0.5;exitDx=0;exitDy=0;strokeWidth=2;startArrow=none;startFill=0;" edge="1" parent="1" source="CHKw1NY7HmJ0gW_EjZ8T-8">
          <mxGeometry relative="1" as="geometry">
            <mxPoint x="576" y="111.84848484848487" as="sourcePoint" />
            <mxPoint x="560" y="96" as="targetPoint" />
          </mxGeometry>
        </mxCell>
        <mxCell id="CHKw1NY7HmJ0gW_EjZ8T-8" value="if_rd" style="text;html=1;strokeColor=none;fillColor=none;align=right;verticalAlign=middle;whiteSpace=wrap;rounded=0;" vertex="1" parent="1">
          <mxGeometry x="496" y="80" width="32" height="32" as="geometry" />
        </mxCell>
        <mxCell id="CHKw1NY7HmJ0gW_EjZ8T-9" style="edgeStyle=orthogonalEdgeStyle;rounded=0;orthogonalLoop=1;jettySize=auto;html=1;exitX=1;exitY=0.5;exitDx=0;exitDy=0;" edge="1" parent="1" source="CHKw1NY7HmJ0gW_EjZ8T-10">
          <mxGeometry relative="1" as="geometry">
            <mxPoint x="560" y="192" as="targetPoint" />
          </mxGeometry>
        </mxCell>
        <mxCell id="CHKw1NY7HmJ0gW_EjZ8T-10" value="if_rd_lvl" style="text;html=1;strokeColor=none;fillColor=none;align=right;verticalAlign=middle;whiteSpace=wrap;rounded=0;" vertex="1" parent="1">
          <mxGeometry x="480" y="176" width="48" height="32" as="geometry" />
        </mxCell>
        <mxCell id="CHKw1NY7HmJ0gW_EjZ8T-11" style="edgeStyle=orthogonalEdgeStyle;rounded=0;orthogonalLoop=1;jettySize=auto;html=1;exitX=1;exitY=0.5;exitDx=0;exitDy=0;strokeWidth=2;" edge="1" parent="1" source="CHKw1NY7HmJ0gW_EjZ8T-15">
          <mxGeometry relative="1" as="geometry">
            <mxPoint x="512" y="112" as="sourcePoint" />
            <mxPoint x="496" y="96" as="targetPoint" />
            <Array as="points">
              <mxPoint x="400" y="112" />
              <mxPoint x="400" y="96" />
            </Array>
          </mxGeometry>
        </mxCell>
        <mxCell id="CHKw1NY7HmJ0gW_EjZ8T-12" value="RAM" style="rounded=0;whiteSpace=wrap;html=1;" vertex="1" parent="1">
          <mxGeometry x="224" y="96" width="144" height="64" as="geometry" />
        </mxCell>
        <mxCell id="CHKw1NY7HmJ0gW_EjZ8T-13" value="wr_data" style="text;html=1;strokeColor=none;fillColor=none;align=left;verticalAlign=middle;whiteSpace=wrap;rounded=0;" vertex="1" parent="1">
          <mxGeometry x="224" y="96" width="48" height="32" as="geometry" />
        </mxCell>
        <mxCell id="CHKw1NY7HmJ0gW_EjZ8T-14" value="wr_addr" style="text;html=1;strokeColor=none;fillColor=none;align=left;verticalAlign=middle;whiteSpace=wrap;rounded=0;" vertex="1" parent="1">
          <mxGeometry x="224" y="128" width="48" height="32" as="geometry" />
        </mxCell>
        <mxCell id="CHKw1NY7HmJ0gW_EjZ8T-15" value="rd_data" style="text;html=1;strokeColor=none;fillColor=none;align=right;verticalAlign=middle;whiteSpace=wrap;rounded=0;" vertex="1" parent="1">
          <mxGeometry x="320" y="96" width="48" height="32" as="geometry" />
        </mxCell>
        <mxCell id="CHKw1NY7HmJ0gW_EjZ8T-16" value="rd_addr" style="text;html=1;strokeColor=none;fillColor=none;align=right;verticalAlign=middle;whiteSpace=wrap;rounded=0;" vertex="1" parent="1">
          <mxGeometry x="320" y="128" width="48" height="32" as="geometry" />
        </mxCell>
        <mxCell id="CHKw1NY7HmJ0gW_EjZ8T-17" style="edgeStyle=orthogonalEdgeStyle;rounded=0;orthogonalLoop=1;jettySize=auto;html=1;entryX=0;entryY=0.5;entryDx=0;entryDy=0;startArrow=diamondThin;startFill=0;" edge="1" parent="1" target="CHKw1NY7HmJ0gW_EjZ8T-19">
          <mxGeometry relative="1" as="geometry">
            <mxPoint x="112" y="96" as="sourcePoint" />
            <Array as="points">
              <mxPoint x="112" y="144" />
            </Array>
          </mxGeometry>
        </mxCell>
        <mxCell id="CHKw1NY7HmJ0gW_EjZ8T-18" style="edgeStyle=orthogonalEdgeStyle;rounded=0;orthogonalLoop=1;jettySize=auto;html=1;exitX=1;exitY=0.5;exitDx=0;exitDy=0;entryX=0;entryY=0.5;entryDx=0;entryDy=0;" edge="1" parent="1" source="CHKw1NY7HmJ0gW_EjZ8T-19" target="CHKw1NY7HmJ0gW_EjZ8T-14">
          <mxGeometry relative="1" as="geometry" />
        </mxCell>
        <mxCell id="CHKw1NY7HmJ0gW_EjZ8T-19" value="Counter" style="rounded=0;whiteSpace=wrap;html=1;" vertex="1" parent="1">
          <mxGeometry x="128" y="128" width="48" height="32" as="geometry" />
        </mxCell>
        <mxCell id="CHKw1NY7HmJ0gW_EjZ8T-20" value="xfer" style="text;html=1;strokeColor=none;fillColor=none;align=left;verticalAlign=middle;whiteSpace=wrap;rounded=0;rotation=90;" vertex="1" parent="1">
          <mxGeometry x="104" y="112" width="32" height="16" as="geometry" />
        </mxCell>
        <mxCell id="CHKw1NY7HmJ0gW_EjZ8T-21" value="wr_ptr" style="text;html=1;strokeColor=none;fillColor=none;align=left;verticalAlign=middle;whiteSpace=wrap;rounded=0;rotation=0;" vertex="1" parent="1">
          <mxGeometry x="176" y="128" width="32" height="16" as="geometry" />
        </mxCell>
        <mxCell id="CHKw1NY7HmJ0gW_EjZ8T-22" style="edgeStyle=orthogonalEdgeStyle;rounded=0;orthogonalLoop=1;jettySize=auto;html=1;exitX=0;exitY=0.5;exitDx=0;exitDy=0;entryX=1;entryY=0.5;entryDx=0;entryDy=0;" edge="1" parent="1" source="CHKw1NY7HmJ0gW_EjZ8T-24" target="CHKw1NY7HmJ0gW_EjZ8T-16">
          <mxGeometry relative="1" as="geometry" />
        </mxCell>
        <mxCell id="CHKw1NY7HmJ0gW_EjZ8T-23" style="edgeStyle=orthogonalEdgeStyle;rounded=0;orthogonalLoop=1;jettySize=auto;html=1;entryX=1;entryY=0.5;entryDx=0;entryDy=0;startArrow=diamondThin;startFill=0;" edge="1" parent="1" target="CHKw1NY7HmJ0gW_EjZ8T-24">
          <mxGeometry relative="1" as="geometry">
            <mxPoint x="480" y="96" as="sourcePoint" />
            <Array as="points">
              <mxPoint x="480" y="144" />
            </Array>
          </mxGeometry>
        </mxCell>
        <mxCell id="CHKw1NY7HmJ0gW_EjZ8T-24" value="Counter" style="rounded=0;whiteSpace=wrap;html=1;" vertex="1" parent="1">
          <mxGeometry x="416" y="128" width="48" height="32" as="geometry" />
        </mxCell>
        <mxCell id="CHKw1NY7HmJ0gW_EjZ8T-25" value="rd_ptr" style="text;html=1;strokeColor=none;fillColor=none;align=right;verticalAlign=middle;whiteSpace=wrap;rounded=0;rotation=0;" vertex="1" parent="1">
          <mxGeometry x="384" y="128" width="32" height="16" as="geometry" />
        </mxCell>
        <mxCell id="CHKw1NY7HmJ0gW_EjZ8T-26" value="xfer" style="text;html=1;strokeColor=none;fillColor=none;align=left;verticalAlign=middle;whiteSpace=wrap;rounded=0;rotation=90;" vertex="1" parent="1">
          <mxGeometry x="472" y="120" width="32" height="16" as="geometry" />
        </mxCell>
      </root>
    </mxGraphModel>
  </diagram>
  <diagram id="_ujRN2rhPGeaWkyFvzEt" name="wf_op">
    <mxGraphModel dx="877" dy="-2377" grid="1" gridSize="8" guides="0" tooltips="1" connect="1" arrows="0" fold="1" page="1" pageScale="1" pageWidth="2560" pageHeight="1440" background="#ffffff" math="0" shadow="0">
      <root>
        <mxCell id="0" />
        <mxCell id="1" parent="0" />
        <mxCell id="pHrrqDDlpu2Do2BHMr9L-1" value="" style="endArrow=none;html=1;rounded=0;fontSize=12;startSize=3;endSize=3;strokeColor=#CCCCCC;" edge="1" parent="1">
          <mxGeometry width="50" height="50" relative="1" as="geometry">
            <mxPoint x="80" y="3120" as="sourcePoint" />
            <mxPoint x="80" y="2912" as="targetPoint" />
          </mxGeometry>
        </mxCell>
        <mxCell id="pHrrqDDlpu2Do2BHMr9L-2" value="" style="endArrow=none;html=1;rounded=0;fontSize=12;startSize=3;endSize=3;strokeColor=#CCCCCC;" edge="1" parent="1">
          <mxGeometry width="50" height="50" relative="1" as="geometry">
            <mxPoint x="112" y="3120" as="sourcePoint" />
            <mxPoint x="112" y="2912" as="targetPoint" />
          </mxGeometry>
        </mxCell>
        <mxCell id="pHrrqDDlpu2Do2BHMr9L-3" value="" style="endArrow=none;html=1;rounded=0;fontSize=12;startSize=3;endSize=3;strokeColor=#CCCCCC;" edge="1" parent="1">
          <mxGeometry width="50" height="50" relative="1" as="geometry">
            <mxPoint x="144" y="3120" as="sourcePoint" />
            <mxPoint x="144" y="2912" as="targetPoint" />
          </mxGeometry>
        </mxCell>
        <mxCell id="pHrrqDDlpu2Do2BHMr9L-4" value="" style="endArrow=none;html=1;rounded=0;fontSize=12;startSize=3;endSize=3;strokeColor=#CCCCCC;" edge="1" parent="1">
          <mxGeometry width="50" height="50" relative="1" as="geometry">
            <mxPoint x="176" y="3120" as="sourcePoint" />
            <mxPoint x="176" y="2912" as="targetPoint" />
          </mxGeometry>
        </mxCell>
        <mxCell id="pHrrqDDlpu2Do2BHMr9L-5" value="" style="endArrow=none;html=1;rounded=0;fontSize=12;startSize=3;endSize=3;strokeColor=#CCCCCC;" edge="1" parent="1">
          <mxGeometry width="50" height="50" relative="1" as="geometry">
            <mxPoint x="208" y="3120" as="sourcePoint" />
            <mxPoint x="208" y="2912" as="targetPoint" />
          </mxGeometry>
        </mxCell>
        <mxCell id="pHrrqDDlpu2Do2BHMr9L-6" value="" style="endArrow=none;html=1;rounded=0;fontSize=12;startSize=3;endSize=3;strokeColor=#CCCCCC;" edge="1" parent="1">
          <mxGeometry width="50" height="50" relative="1" as="geometry">
            <mxPoint x="240" y="3120" as="sourcePoint" />
            <mxPoint x="240" y="2912" as="targetPoint" />
          </mxGeometry>
        </mxCell>
        <mxCell id="pHrrqDDlpu2Do2BHMr9L-7" value="" style="endArrow=none;html=1;rounded=0;fontSize=12;startSize=3;endSize=3;strokeColor=#CCCCCC;" edge="1" parent="1">
          <mxGeometry width="50" height="50" relative="1" as="geometry">
            <mxPoint x="272" y="3120" as="sourcePoint" />
            <mxPoint x="272" y="2912" as="targetPoint" />
          </mxGeometry>
        </mxCell>
        <mxCell id="pHrrqDDlpu2Do2BHMr9L-8" value="" style="endArrow=none;html=1;rounded=0;fontSize=12;startSize=3;endSize=3;strokeColor=#CCCCCC;" edge="1" parent="1">
          <mxGeometry width="50" height="50" relative="1" as="geometry">
            <mxPoint x="303.6" y="3120" as="sourcePoint" />
            <mxPoint x="303.6" y="2912" as="targetPoint" />
          </mxGeometry>
        </mxCell>
        <mxCell id="pHrrqDDlpu2Do2BHMr9L-9" value="x" style="rounded=0;whiteSpace=wrap;html=1;fontSize=8;strokeColor=#000000;strokeWidth=1;fillColor=#F19C99;" vertex="1" parent="1">
          <mxGeometry x="64" y="2992" width="48" height="16" as="geometry" />
        </mxCell>
        <mxCell id="pHrrqDDlpu2Do2BHMr9L-10" value="D0" style="rounded=0;whiteSpace=wrap;html=1;fontSize=8;strokeColor=#000000;strokeWidth=1;fillColor=#FFFFFF;" vertex="1" parent="1">
          <mxGeometry x="144" y="3024" width="32" height="16" as="geometry" />
        </mxCell>
        <mxCell id="pHrrqDDlpu2Do2BHMr9L-11" value="clock" style="text;html=1;strokeColor=none;fillColor=none;align=right;verticalAlign=middle;whiteSpace=wrap;rounded=0;fontSize=8;" vertex="1" parent="1">
          <mxGeometry x="16" y="2928" width="32" height="16" as="geometry" />
        </mxCell>
        <mxCell id="pHrrqDDlpu2Do2BHMr9L-12" value="if_wr.xfer" style="text;html=1;strokeColor=none;fillColor=none;align=right;verticalAlign=middle;whiteSpace=wrap;rounded=0;fontSize=8;" vertex="1" parent="1">
          <mxGeometry x="16" y="2992" width="32" height="16" as="geometry" />
        </mxCell>
        <mxCell id="pHrrqDDlpu2Do2BHMr9L-13" value="if_wr.data" style="text;html=1;strokeColor=none;fillColor=none;align=right;verticalAlign=middle;whiteSpace=wrap;rounded=0;fontSize=8;" vertex="1" parent="1">
          <mxGeometry x="16" y="3024" width="32" height="16" as="geometry" />
        </mxCell>
        <mxCell id="pHrrqDDlpu2Do2BHMr9L-14" value="" style="endArrow=none;html=1;rounded=0;fontSize=8;startSize=3;endSize=3;strokeColor=#000000;" edge="1" parent="1">
          <mxGeometry width="50" height="50" relative="1" as="geometry">
            <mxPoint x="64" y="2944" as="sourcePoint" />
            <mxPoint x="320" y="2928" as="targetPoint" />
            <Array as="points">
              <mxPoint x="80" y="2944" />
              <mxPoint x="80" y="2928" />
              <mxPoint x="96" y="2928" />
              <mxPoint x="96" y="2944" />
              <mxPoint x="112" y="2944" />
              <mxPoint x="112" y="2928" />
              <mxPoint x="128" y="2928" />
              <mxPoint x="128" y="2944" />
              <mxPoint x="144" y="2944" />
              <mxPoint x="144" y="2928" />
              <mxPoint x="160" y="2928" />
              <mxPoint x="160" y="2944" />
              <mxPoint x="176" y="2944" />
              <mxPoint x="176" y="2928" />
              <mxPoint x="192" y="2928" />
              <mxPoint x="192" y="2944" />
              <mxPoint x="208" y="2944" />
              <mxPoint x="208" y="2928" />
              <mxPoint x="224" y="2928" />
              <mxPoint x="224" y="2944" />
              <mxPoint x="240" y="2944" />
              <mxPoint x="240" y="2928" />
              <mxPoint x="256" y="2928" />
              <mxPoint x="256" y="2944" />
              <mxPoint x="272" y="2944" />
              <mxPoint x="272" y="2928" />
              <mxPoint x="288" y="2928" />
              <mxPoint x="288" y="2944" />
              <mxPoint x="304" y="2944" />
              <mxPoint x="304" y="2928" />
            </Array>
          </mxGeometry>
        </mxCell>
        <mxCell id="pHrrqDDlpu2Do2BHMr9L-15" value="D1" style="rounded=0;whiteSpace=wrap;html=1;fontSize=8;strokeColor=#000000;strokeWidth=1;fillColor=#FFFFFF;" vertex="1" parent="1">
          <mxGeometry x="176" y="3024" width="32" height="16" as="geometry" />
        </mxCell>
        <mxCell id="pHrrqDDlpu2Do2BHMr9L-16" value="" style="endArrow=none;html=1;rounded=0;" edge="1" parent="1">
          <mxGeometry width="50" height="50" relative="1" as="geometry">
            <mxPoint x="112" y="3008" as="sourcePoint" />
            <mxPoint x="320" y="3008" as="targetPoint" />
            <Array as="points">
              <mxPoint x="112" y="3008" />
              <mxPoint x="144" y="3008" />
              <mxPoint x="144" y="2992" />
              <mxPoint x="176" y="2992" />
              <mxPoint x="240" y="2992" />
              <mxPoint x="240" y="3008" />
            </Array>
          </mxGeometry>
        </mxCell>
        <mxCell id="pHrrqDDlpu2Do2BHMr9L-17" value="x" style="rounded=0;whiteSpace=wrap;html=1;fontSize=8;strokeColor=#000000;strokeWidth=1;fillColor=#F19C99;" vertex="1" parent="1">
          <mxGeometry x="64" y="3024" width="80" height="16" as="geometry" />
        </mxCell>
        <mxCell id="pHrrqDDlpu2Do2BHMr9L-18" value="x" style="rounded=0;whiteSpace=wrap;html=1;fontSize=8;strokeColor=#000000;strokeWidth=1;fillColor=#F19C99;" vertex="1" parent="1">
          <mxGeometry x="240" y="3024" width="80" height="16" as="geometry" />
        </mxCell>
        <mxCell id="pHrrqDDlpu2Do2BHMr9L-19" value="rst" style="text;html=1;strokeColor=none;fillColor=none;align=right;verticalAlign=middle;whiteSpace=wrap;rounded=0;fontSize=8;" vertex="1" parent="1">
          <mxGeometry x="16" y="2960" width="32" height="16" as="geometry" />
        </mxCell>
        <mxCell id="pHrrqDDlpu2Do2BHMr9L-20" value="" style="endArrow=none;html=1;rounded=0;" edge="1" parent="1">
          <mxGeometry width="50" height="50" relative="1" as="geometry">
            <mxPoint x="64" y="2960" as="sourcePoint" />
            <mxPoint x="320" y="2976" as="targetPoint" />
            <Array as="points">
              <mxPoint x="80" y="2960" />
              <mxPoint x="112" y="2960" />
              <mxPoint x="112" y="2976" />
              <mxPoint x="176" y="2976" />
              <mxPoint x="240" y="2976" />
            </Array>
          </mxGeometry>
        </mxCell>
        <mxCell id="pHrrqDDlpu2Do2BHMr9L-21" value="D2" style="rounded=0;whiteSpace=wrap;html=1;fontSize=8;strokeColor=#000000;strokeWidth=1;fillColor=#FFFFFF;" vertex="1" parent="1">
          <mxGeometry x="208" y="3024" width="32" height="16" as="geometry" />
        </mxCell>
        <mxCell id="pHrrqDDlpu2Do2BHMr9L-22" value="x" style="rounded=0;whiteSpace=wrap;html=1;fontSize=8;strokeColor=#000000;strokeWidth=1;fillColor=#F19C99;" vertex="1" parent="1">
          <mxGeometry x="64" y="3056" width="48" height="16" as="geometry" />
        </mxCell>
        <mxCell id="pHrrqDDlpu2Do2BHMr9L-23" value="D0" style="rounded=0;whiteSpace=wrap;html=1;fontSize=8;strokeColor=#000000;strokeWidth=1;fillColor=#FFFFFF;" vertex="1" parent="1">
          <mxGeometry x="176" y="3088" width="64" height="16" as="geometry" />
        </mxCell>
        <mxCell id="pHrrqDDlpu2Do2BHMr9L-24" value="if_rd.xfer" style="text;html=1;strokeColor=none;fillColor=none;align=right;verticalAlign=middle;whiteSpace=wrap;rounded=0;fontSize=8;" vertex="1" parent="1">
          <mxGeometry x="16" y="3056" width="32" height="16" as="geometry" />
        </mxCell>
        <mxCell id="pHrrqDDlpu2Do2BHMr9L-25" value="if_rd.data" style="text;html=1;strokeColor=none;fillColor=none;align=right;verticalAlign=middle;whiteSpace=wrap;rounded=0;fontSize=8;" vertex="1" parent="1">
          <mxGeometry x="16" y="3088" width="32" height="16" as="geometry" />
        </mxCell>
        <mxCell id="pHrrqDDlpu2Do2BHMr9L-26" value="D1" style="rounded=0;whiteSpace=wrap;html=1;fontSize=8;strokeColor=#000000;strokeWidth=1;fillColor=#FFFFFF;" vertex="1" parent="1">
          <mxGeometry x="240" y="3088" width="32" height="16" as="geometry" />
        </mxCell>
        <mxCell id="pHrrqDDlpu2Do2BHMr9L-27" value="" style="endArrow=none;html=1;rounded=0;" edge="1" parent="1">
          <mxGeometry width="50" height="50" relative="1" as="geometry">
            <mxPoint x="112" y="3072" as="sourcePoint" />
            <mxPoint x="320" y="3072" as="targetPoint" />
            <Array as="points">
              <mxPoint x="112" y="3072" />
              <mxPoint x="144" y="3072" />
              <mxPoint x="208" y="3072" />
              <mxPoint x="208" y="3056" />
              <mxPoint x="272" y="3056" />
              <mxPoint x="272" y="3072" />
            </Array>
          </mxGeometry>
        </mxCell>
        <mxCell id="pHrrqDDlpu2Do2BHMr9L-28" value="x" style="rounded=0;whiteSpace=wrap;html=1;fontSize=8;strokeColor=#000000;strokeWidth=1;fillColor=#F19C99;" vertex="1" parent="1">
          <mxGeometry x="64" y="3088" width="112" height="16" as="geometry" />
        </mxCell>
        <mxCell id="pHrrqDDlpu2Do2BHMr9L-29" value="D2" style="rounded=0;whiteSpace=wrap;html=1;fontSize=8;strokeColor=#000000;strokeWidth=1;fillColor=#FFFFFF;" vertex="1" parent="1">
          <mxGeometry x="272" y="3088" width="48" height="16" as="geometry" />
        </mxCell>
      </root>
    </mxGraphModel>
  </diagram>
</mxfile>
